# xmcd
#
# Track frame offsets:
#	150
#	9900
#	22730
#	34332
#	55207
#	66132
#	81285
#	101207
#	109450
#	117942
#	130160
#	141775
#	159135
#	167990
#	178507
#	191537
#	207927
#	221560
#	238312
#	257482
#	268600
#	280715
#	294032
#	305417
#	315677
#
# Disc length: 4611 seconds
#
# Revision: 0
# Processed by: cddbd v1.4PL0 Copyright (c) Steve Scherf et al.
# Submitted via: MusicWizard 6.0.0
#
DISCID=63120119
DTITLE=Johnny Cash - Unsurpassed American Masters
DYEAR=1900
DGENRE=Country
TTITLE0=What On Earth
TTITLE1=The Drifter
TTITLE2=I Witnissed A Crime
TTITLE3=Banks Of The Ohio
TTITLE4=The Next Time I'm In Town
TTITLE5=Breaking Bread
TTITLE6=To Beat The Devil
TTITLE7=Friends In California
TTITLE8=The Caretaker
TTITLE9=The Wonder Of You
TTITLE10=East Virginia Blues
TTITLE11=Bury Me Not - Take 2
TTITLE12=Old Chunk Of Coal
TTITLE13=Go On Blues
TTITLE14=If I Give My Soul
TTITLE15=Thirteen
TTITLE16=Folsom Prison Blues
TTITLE17=Ring Of Fire (Feat. John Mellencamp)
TTITLE18=In Your Mind (From "Dead Man Walking")
TTITLE19=Flesh And Blood
TTITLE20=Thanksgiving (From "Dr. Quinn")
TTITLE21=Bad News
TTITLE22=All Of God's Children Ain't Free
TTITLE23=One More Ride
TTITLE24=The Little Drummer Boy (With Neil Young and Friends)
EXTD=bootleg OTA-007
EXTT0=
EXTT1=
EXTT2=
EXTT3=
EXTT4=
EXTT5=
EXTT6=
EXTT7=
EXTT8=
EXTT9=
EXTT10=
EXTT11=
EXTT12=
EXTT13=
EXTT14=
EXTT15=
EXTT16=
EXTT17=
EXTT18=
EXTT19=
EXTT20=
EXTT21=
EXTT22=
EXTT23=
EXTT24=
PLAYORDER=
